<?xml version="1.0" encoding="UTF-8"?>
<svg id="Artwork_Layer" data-name="Artwork Layer" xmlns="http://www.w3.org/2000/svg" xmlns:xlink="http://www.w3.org/1999/xlink" viewBox="0 0 48 48">
  <defs>
    <style>
      .cls-1 {
        clip-path: url(#clippath);
      }

      .cls-2 {
        fill: none;
      }

      .cls-2, .cls-3 {
        stroke-width: 0px;
      }

      .cls-3 {
        fill: #76b900;
      }
    </style>
    <clipPath id="clippath">
      <polygon class="cls-2" points="24 40.54 38.32 32.27 38.32 15.73 24 7.46 9.68 15.73 9.68 32.27 24 40.54"/>
    </clipPath>
  </defs>
  <g class="cls-1">
    <g>
      <path class="cls-3" d="M24.47,40.81l-14.79-8.54V15.19l14.79,8.54v17.07ZM10.61,31.73l12.93,7.46v-14.93l-12.93-7.46v14.93Z"/>
      <rect class="cls-3" x="12.31" y="17.51" width=".93" height="15.72"/>
      <rect class="cls-3" x="16.59" y="20" width=".93" height="16" transform="translate(-.04 .03) rotate(-.09)"/>
      <rect class="cls-3" x="16.58" y="19.95" width=".93" height="16" transform="translate(-15.69 28.73) rotate(-60)"/>
      <polygon class="cls-3" points="17.07 28 12.78 25.52 12.78 33.52 17.07 36 17.07 28"/>
      <g>
        <path class="cls-3" d="M24,24.54l-14.79-8.54,14.79-8.54,14.79,8.54-14.79,8.54ZM11.07,16l12.93,7.46,12.93-7.46-12.93-7.46-12.93,7.46Z"/>
        <path class="cls-3" d="M19.43,13.25c-.24.14-.63.14-.87,0s-.24-.36,0-.5.63-.14.87,0,.24.36,0,.5Z"/>
        <path class="cls-3" d="M16.43,17.25c-.24.14-.63.14-.87,0s-.24-.36,0-.5.63-.14.87,0,.24.36,0,.5Z"/>
        <path class="cls-3" d="M30.43,14.25c-.24.14-.63.14-.87,0s-.24-.36,0-.5.63-.14.87,0,.24.36,0,.5Z"/>
        <path class="cls-3" d="M27.43,13.25c-.24.14-.63.14-.87,0s-.24-.36,0-.5.63-.14.87,0,.24.36,0,.5Z"/>
        <path class="cls-3" d="M22.43,18.25c-.24.14-.63.14-.87,0s-.24-.36,0-.5.63-.14.87,0,.24.36,0,.5Z"/>
        <path class="cls-3" d="M33.43,16.25c-.24.14-.63.14-.87,0s-.24-.36,0-.5.63-.14.87,0,.24.36,0,.5Z"/>
        <path class="cls-3" d="M31.43,18.25c-.24.14-.63.14-.87,0s-.24-.36,0-.5.63-.14.87,0,.24.36,0,.5Z"/>
        <path class="cls-3" d="M23.43,21.25c-.24.14-.63.14-.87,0s-.24-.36,0-.5.63-.14.87,0,.24.36,0,.5Z"/>
        <path class="cls-3" d="M26.43,16.25c-.24.14-.63.14-.87,0s-.24-.36,0-.5.63-.14.87,0,.24.36,0,.5Z"/>
        <path class="cls-3" d="M24.43,10.25c-.24.14-.63.14-.87,0s-.24-.36,0-.5.63-.14.87,0,.24.36,0,.5Z"/>
      </g>
      <g>
        <path class="cls-3" d="M23.53,40.81v-17.07l14.79-8.54v17.07l-14.79,8.54ZM24.47,24.27v14.93l12.93-7.46v-14.93l-12.93,7.46Z"/>
        <path class="cls-3" d="M27.78,33.98c-.71,0-1.25-.41-1.5-1.14l-1.09-3.14c-.08-.23-.2-.38-.35-.46-.22-.11-.49-.05-.68.02l-.31-.88c.51-.18,1-.18,1.4.01.38.18.67.53.83.99l1.09,3.14c.17.48.45.53.67.51.78-.04,2.13-1.13,2.55-2.85l1.09-4.4c.47-1.89,2-3.49,3.41-3.55.76-.03,1.33.38,1.59,1.14l1.09,3.14c.09.25.22.41.4.48.24.09.6.02.99-.2l.46.81c-.63.37-1.26.46-1.78.27-.31-.11-.72-.39-.95-1.04l-1.09-3.14c-.17-.48-.46-.52-.67-.51-.78.04-2.13,1.14-2.55,2.85l-1.09,4.4c-.47,1.89-2,3.49-3.41,3.55-.03,0-.06,0-.08,0Z"/>
      </g>
    </g>
  </g>
</svg>